<svg viewBox="0 0 330 200" xmlns="http://www.w3.org/2000/svg"><g><g><g><g><g><line x1="68.3125" y1="177.828125" x2="63.3125" y2="177.828125" style="visibility: inherit;" fill="rgb(0, 0, 0)" stroke="rgb(204, 204, 204)" stroke-width="1px"></line><line x1="68.3125" y1="165.12611607142856" x2="63.3125" y2="165.12611607142856" style="visibility: inherit;" fill="rgb(0, 0, 0)" stroke="rgb(204, 204, 204)" stroke-width="1px"></line><line x1="68.3125" y1="152.42410714285714" x2="63.3125" y2="152.42410714285714" style="visibility: inherit;" fill="rgb(0, 0, 0)" stroke="rgb(204, 204, 204)" stroke-width="1px"></line><line x1="68.3125" y1="139.72209821428572" x2="63.3125" y2="139.72209821428572" style="visibility: inherit;" fill="rgb(0, 0, 0)" stroke="rgb(204, 204, 204)" stroke-width="1px"></line><line x1="68.3125" y1="127.02008928571428" x2="63.3125" y2="127.02008928571428" style="visibility: inherit;" fill="rgb(0, 0, 0)" stroke="rgb(204, 204, 204)" stroke-width="1px"></line><line x1="68.3125" y1="114.31808035714286" x2="63.3125" y2="114.31808035714286" style="visibility: inherit;" fill="rgb(0, 0, 0)" stroke="rgb(204, 204, 204)" stroke-width="1px"></line><line x1="68.3125" y1="101.61607142857142" x2="63.3125" y2="101.61607142857142" style="visibility: inherit;" fill="rgb(0, 0, 0)" stroke="rgb(204, 204, 204)" stroke-width="1px"></line><line x1="68.3125" y1="88.9140625" x2="63.3125" y2="88.9140625" style="visibility: inherit;" fill="rgb(0, 0, 0)" stroke="rgb(204, 204, 204)" stroke-width="1px"></line><line x1="68.3125" y1="76.21205357142858" x2="63.3125" y2="76.21205357142858" style="visibility: inherit;" fill="rgb(0, 0, 0)" stroke="rgb(204, 204, 204)" stroke-width="1px"></line><line x1="68.3125" y1="63.51004464285715" x2="63.3125" y2="63.51004464285715" style="visibility: inherit;" fill="rgb(0, 0, 0)" stroke="rgb(204, 204, 204)" stroke-width="1px"></line><line x1="68.3125" y1="50.80803571428571" x2="63.3125" y2="50.80803571428571" style="visibility: inherit;" fill="rgb(0, 0, 0)" stroke="rgb(204, 204, 204)" stroke-width="1px"></line><line x1="68.3125" y1="38.10602678571428" x2="63.3125" y2="38.10602678571428" style="visibility: inherit;" fill="rgb(0, 0, 0)" stroke="rgb(204, 204, 204)" stroke-width="1px"></line><line x1="68.3125" y1="25.404017857142833" x2="63.3125" y2="25.404017857142833" style="visibility: inherit;" fill="rgb(0, 0, 0)" stroke="rgb(204, 204, 204)" stroke-width="1px"></line><line x1="68.3125" y1="12.702008928571416" x2="63.3125" y2="12.702008928571416" style="visibility: inherit;" fill="rgb(0, 0, 0)" stroke="rgb(204, 204, 204)" stroke-width="1px"></line></g><g transform="translate(58.3125, 0)"><text x="0" y="177.828125" dx="0em" dy="0.3em" style="text-anchor: end; visibility: hidden; font-family: &quot;Helvetica Neue&quot;, sans-serif; font-size: 12px; font-weight: 200;" fill="rgb(50, 49, 63)" stroke="none" stroke-width="1px">-2e-4</text><text x="0" y="165.12611607142856" dx="0em" dy="0.3em" style="text-anchor: end; visibility: inherit; font-family: &quot;Helvetica Neue&quot;, sans-serif; font-size: 12px; font-weight: 200;" fill="rgb(50, 49, 63)" stroke="none" stroke-width="1px">-1e-4</text><text x="0" y="152.42410714285714" dx="0em" dy="0.3em" style="text-anchor: end; visibility: hidden; font-family: &quot;Helvetica Neue&quot;, sans-serif; font-size: 12px; font-weight: 200;" fill="rgb(50, 49, 63)" stroke="none" stroke-width="1px">0</text><text x="0" y="139.72209821428572" dx="0em" dy="0.3em" style="text-anchor: end; visibility: inherit; font-family: &quot;Helvetica Neue&quot;, sans-serif; font-size: 12px; font-weight: 200;" fill="rgb(50, 49, 63)" stroke="none" stroke-width="1px">1e-4</text><text x="0" y="127.02008928571428" dx="0em" dy="0.3em" style="text-anchor: end; visibility: hidden; font-family: &quot;Helvetica Neue&quot;, sans-serif; font-size: 12px; font-weight: 200;" fill="rgb(50, 49, 63)" stroke="none" stroke-width="1px">2e-4</text><text x="0" y="114.31808035714286" dx="0em" dy="0.3em" style="text-anchor: end; visibility: inherit; font-family: &quot;Helvetica Neue&quot;, sans-serif; font-size: 12px; font-weight: 200;" fill="rgb(50, 49, 63)" stroke="none" stroke-width="1px">3e-4</text><text x="0" y="101.61607142857142" dx="0em" dy="0.3em" style="text-anchor: end; visibility: hidden; font-family: &quot;Helvetica Neue&quot;, sans-serif; font-size: 12px; font-weight: 200;" fill="rgb(50, 49, 63)" stroke="none" stroke-width="1px">4e-4</text><text x="0" y="88.9140625" dx="0em" dy="0.3em" style="text-anchor: end; visibility: inherit; font-family: &quot;Helvetica Neue&quot;, sans-serif; font-size: 12px; font-weight: 200;" fill="rgb(50, 49, 63)" stroke="none" stroke-width="1px">5e-4</text><text x="0" y="76.21205357142858" dx="0em" dy="0.3em" style="text-anchor: end; visibility: hidden; font-family: &quot;Helvetica Neue&quot;, sans-serif; font-size: 12px; font-weight: 200;" fill="rgb(50, 49, 63)" stroke="none" stroke-width="1px">6e-4</text><text x="0" y="63.51004464285715" dx="0em" dy="0.3em" style="text-anchor: end; visibility: inherit; font-family: &quot;Helvetica Neue&quot;, sans-serif; font-size: 12px; font-weight: 200;" fill="rgb(50, 49, 63)" stroke="none" stroke-width="1px">7e-4</text><text x="0" y="50.80803571428571" dx="0em" dy="0.3em" style="text-anchor: end; visibility: hidden; font-family: &quot;Helvetica Neue&quot;, sans-serif; font-size: 12px; font-weight: 200;" fill="rgb(50, 49, 63)" stroke="none" stroke-width="1px">8e-4</text><text x="0" y="38.10602678571428" dx="0em" dy="0.3em" style="text-anchor: end; visibility: inherit; font-family: &quot;Helvetica Neue&quot;, sans-serif; font-size: 12px; font-weight: 200;" fill="rgb(50, 49, 63)" stroke="none" stroke-width="1px">9e-4</text><text x="0" y="25.404017857142833" dx="0em" dy="0.3em" style="text-anchor: end; visibility: hidden; font-family: &quot;Helvetica Neue&quot;, sans-serif; font-size: 12px; font-weight: 200;" fill="rgb(50, 49, 63)" stroke="none" stroke-width="1px">1e-3</text><text x="0" y="12.702008928571416" dx="0em" dy="0.3em" style="text-anchor: end; visibility: inherit; font-family: &quot;Helvetica Neue&quot;, sans-serif; font-size: 12px; font-weight: 200;" fill="rgb(50, 49, 63)" stroke="none" stroke-width="1px">1.1e-3</text></g><line x1="68.3125" y1="0" x2="68.3125" y2="177.828125" fill="rgb(0, 0, 0)" stroke="rgb(204, 204, 204)" stroke-width="1px"></line></g></g><g transform="translate(68, 0)" clip-path="url(#clip_0)"><clipPath id="clip_0"><rect width="261" height="177"></rect></clipPath><g><g><g><line x1="0" y1="0" x2="0" y2="177.828125" fill="rgb(0, 0, 0)" stroke="rgb(60, 60, 60)" stroke-width="1px" opacity="0.25"></line><line x1="26.168750000000003" y1="0" x2="26.168750000000003" y2="177.828125" fill="rgb(0, 0, 0)" stroke="rgb(60, 60, 60)" stroke-width="1px" opacity="0.25"></line><line x1="52.337500000000006" y1="0" x2="52.337500000000006" y2="177.828125" fill="rgb(0, 0, 0)" stroke="rgb(60, 60, 60)" stroke-width="1px" opacity="0.25"></line><line x1="78.50625" y1="0" x2="78.50625" y2="177.828125" fill="rgb(0, 0, 0)" stroke="rgb(60, 60, 60)" stroke-width="1px" opacity="0.25"></line><line x1="104.67500000000001" y1="0" x2="104.67500000000001" y2="177.828125" fill="rgb(0, 0, 0)" stroke="rgb(60, 60, 60)" stroke-width="1px" opacity="0.25"></line><line x1="130.84375" y1="0" x2="130.84375" y2="177.828125" fill="rgb(0, 0, 0)" stroke="rgb(60, 60, 60)" stroke-width="1px" opacity="0.25"></line><line x1="157.0125" y1="0" x2="157.0125" y2="177.828125" fill="rgb(0, 0, 0)" stroke="rgb(60, 60, 60)" stroke-width="1px" opacity="0.25"></line><line x1="183.18124999999998" y1="0" x2="183.18124999999998" y2="177.828125" fill="rgb(0, 0, 0)" stroke="rgb(60, 60, 60)" stroke-width="1px" opacity="0.25"></line><line x1="209.35000000000002" y1="0" x2="209.35000000000002" y2="177.828125" fill="rgb(0, 0, 0)" stroke="rgb(60, 60, 60)" stroke-width="1px" opacity="0.25"></line><line x1="235.51875" y1="0" x2="235.51875" y2="177.828125" fill="rgb(0, 0, 0)" stroke="rgb(60, 60, 60)" stroke-width="1px" opacity="0.25"></line><line x1="261.6875" y1="0" x2="261.6875" y2="177.828125" fill="rgb(0, 0, 0)" stroke="rgb(60, 60, 60)" stroke-width="1px" opacity="0.25"></line></g><g><line x1="0" y1="177.828125" x2="261.6875" y2="177.828125" fill="rgb(0, 0, 0)" stroke="rgb(60, 60, 60)" stroke-width="1px" opacity="0.25"></line><line x1="0" y1="165.12611607142856" x2="261.6875" y2="165.12611607142856" fill="rgb(0, 0, 0)" stroke="rgb(60, 60, 60)" stroke-width="1px" opacity="0.25"></line><line x1="0" y1="152.42410714285714" x2="261.6875" y2="152.42410714285714" fill="rgb(0, 0, 0)" stroke="rgb(60, 60, 60)" stroke-width="1px" opacity="0.25"></line><line x1="0" y1="139.72209821428572" x2="261.6875" y2="139.72209821428572" fill="rgb(0, 0, 0)" stroke="rgb(60, 60, 60)" stroke-width="1px" opacity="0.25"></line><line x1="0" y1="127.02008928571428" x2="261.6875" y2="127.02008928571428" fill="rgb(0, 0, 0)" stroke="rgb(60, 60, 60)" stroke-width="1px" opacity="0.25"></line><line x1="0" y1="114.31808035714286" x2="261.6875" y2="114.31808035714286" fill="rgb(0, 0, 0)" stroke="rgb(60, 60, 60)" stroke-width="1px" opacity="0.25"></line><line x1="0" y1="101.61607142857142" x2="261.6875" y2="101.61607142857142" fill="rgb(0, 0, 0)" stroke="rgb(60, 60, 60)" stroke-width="1px" opacity="0.25"></line><line x1="0" y1="88.9140625" x2="261.6875" y2="88.9140625" fill="rgb(0, 0, 0)" stroke="rgb(60, 60, 60)" stroke-width="1px" opacity="0.25"></line><line x1="0" y1="76.21205357142858" x2="261.6875" y2="76.21205357142858" fill="rgb(0, 0, 0)" stroke="rgb(60, 60, 60)" stroke-width="1px" opacity="0.25"></line><line x1="0" y1="63.51004464285715" x2="261.6875" y2="63.51004464285715" fill="rgb(0, 0, 0)" stroke="rgb(60, 60, 60)" stroke-width="1px" opacity="0.25"></line><line x1="0" y1="50.80803571428571" x2="261.6875" y2="50.80803571428571" fill="rgb(0, 0, 0)" stroke="rgb(60, 60, 60)" stroke-width="1px" opacity="0.25"></line><line x1="0" y1="38.10602678571428" x2="261.6875" y2="38.10602678571428" fill="rgb(0, 0, 0)" stroke="rgb(60, 60, 60)" stroke-width="1px" opacity="0.25"></line><line x1="0" y1="25.404017857142833" x2="261.6875" y2="25.404017857142833" fill="rgb(0, 0, 0)" stroke="rgb(60, 60, 60)" stroke-width="1px" opacity="0.25"></line><line x1="0" y1="12.702008928571416" x2="261.6875" y2="12.702008928571416" fill="rgb(0, 0, 0)" stroke="rgb(60, 60, 60)" stroke-width="1px" opacity="0.25"></line></g></g></g><g><g><line x1="0" y1="152.42410714285714" x2="261.6875" y2="152.42410714285714" fill="rgb(0, 0, 0)" stroke="rgb(153, 153, 153)" stroke-width="1.5px"></line></g></g><g><g><line x1="26.168750000000003" y1="0" x2="26.168750000000003" y2="177.828125" fill="rgb(0, 0, 0)" stroke="rgb(153, 153, 153)" stroke-width="1.5px"></line></g></g><g><g><g><g><g><path stroke="rgb(255, 112, 67)" stroke-width="2px" d="M26.4304375,25.404011824012343L26.953812499999998,25.404011824012343L27.110825,25.404011824012343L27.424850000000003,25.404011824012372L28.262249999999998,25.404011824012343L28.366925,25.404011824012343L28.4716,25.404011824012343L28.5239375,25.404011824012343L28.6286125,25.404011824012343L28.9426375,25.404011824012343L28.994975,25.404011824012343L29.099649999999997,25.404011824012315L29.570687500000002,25.404011824012315L29.8847125,25.404011824012343L29.93705,25.404011824012343L29.9893875,25.404011824012315L30.041725,25.404011824012315L30.3034125,25.404011824012343L30.7221125,25.404011824012372L31.088475,25.404011824012343L31.507174999999997,25.404011824012343L31.6641875,25.404011824012343L31.716525,25.404011824012343L32.0828875,25.404011824012343L32.344575,25.404011824012343L32.763275,25.404011824012343L32.9202875,25.404011824012372L32.972625,25.404011824012343L33.4436625,25.404011824012343L33.5483375,25.404011824012372L33.600674999999995,25.404011824012343L34.019375000000004,25.404011824012372L34.281062500000004,25.404011824012343L34.438075,25.404011824012372L34.9091125,25.404011824012372L34.96145,25.404011824012372L35.4324875,25.404011824012372L35.484825,25.404011824012372L35.7465125,25.4040118240124L35.8511875,25.404011824012372L35.903524999999995,25.404011824012372L36.112875,25.404011824012372L36.531575000000004,25.404011824012372L36.950275,25.404011824012372L37.0026125,25.404011824012372L37.05495,25.404011824012372L37.2643,25.404011824012372L37.8400125,25.404011824012372L38.1540375,25.404011824012343L38.415725,25.404011824012343L38.5727375,25.404011824012372L39.2007875,25.404011824012372L39.5148125,25.404011824012343L39.7765,25.404011824012372L39.933512500000006,25.4040118240124L40.1428625,25.404011824012372L40.3522125,25.404011824012372L40.45688749999999,25.404011824012343L41.4513,25.404011824012343L41.7129875,25.404011824012372L41.765325,25.404011824012372L42.0270125,25.404011824012372L42.2363625,25.404011824012372L42.2887,25.404011824012372L42.393375,25.404011824012372L42.812075,25.404011824012343L42.8644125,25.404011824012343L43.1784375,25.404011824012343L43.230775,25.404011824012343L43.283112499999994,25.404011824012343L43.440125,25.404011824012372L43.9111625,25.404011824012372L44.3298625,25.404011824012372L45.1672625,25.4040118240124L45.3766125,25.4040118240124L45.6906375,25.4040118240124L45.8999875,25.4040118240124L46.0046625,25.4040118240124L46.6327125,25.4040118240124L46.685050000000004,25.4040118240124L47.522450000000006,25.4040118240124L48.2028375,25.4040118240124L48.255175,25.4040118240124L48.359849999999994,25.4040118240124L48.673875,25.4040118240124L49.1449125,25.4040118240124L49.249587500000004,25.4040118240124L49.301925000000004,25.4040118240124L49.4589375,25.4040118240124L49.772962500000006,25.4040118240124L50.244,25.4040118240124L50.4010125,25.4040118240124L50.45335,25.4040118240124L50.9243875,25.4040118240124L50.976725,25.4040118240124L51.761787500000004,25.4040118240124L51.8664625,25.4040118240124L51.9711375,25.4040118240124L52.7038625,25.4040118240124L52.96555,25.4040118240124L53.070225,25.4040118240124L53.2272375,25.4040118240124L53.645937499999995,25.4040118240124L53.959962499999996,25.4040118240124L54.0646375,25.4040118240124L54.22165,25.4040118240124L54.535675,25.4040118240124L54.7973625,25.4040118240124L55.3207375,25.4040118240124L55.4254125,25.4040118240124L55.6347625,25.4040118240124L55.948787499999995,25.4040118240124L56.1581375,25.4040118240124L56.210474999999995,25.4040118240124L56.472162499999996,25.4040118240124L56.5768375,25.4040118240124L56.629175000000004,25.4040118240124L56.73385,25.4040118240124L56.838525000000004,25.4040118240124L56.890862500000004,25.4040118240124L57.152550000000005,25.4040118240124L57.2048875,25.4040118240124L57.67592500000001,25.4040118240124L57.98995,25.4040118240124L58.094625,25.4040118240124L58.3563125,25.4040118240124L58.618,25.4040118240124L58.722674999999995,25.4040118240124L59.350725,25.4040118240124L59.7170875,25.4040118240124L59.769425,25.4040118240124L59.8741,25.4040118240124L59.926437500000006,25.4040118240124L59.978775,25.4040118240124L60.0311125,25.4040118240124L60.1357875,25.4040118240124L60.2928,25.4040118240124L60.50215,25.4040118240124L60.763837499999994,25.4040118240124L60.92085,25.4040118240124L61.1302,25.4040118240124L61.287212499999995,25.4040118240124L61.33955,25.4040118240124L61.444225,25.4040118240124L61.496562499999996,25.4040118240124L61.653575000000004,25.4040118240124L61.705912500000004,25.4040118240124L61.862925,25.4040118240124L61.915262500000004,25.4040118240124L62.17695,25.4040118240124L62.229287500000005,25.4040118240124L62.59565,25.4040118240124L62.75266250000001,25.4040118240124L62.9620125,25.4040118240124L63.119025,25.4040118240124L63.2237,25.4040118240124L63.328375,25.4040118240124L63.537724999999995,25.4040118240124L63.747075,25.4040118240124L63.9040875,25.4040118240124L63.956425,25.4040118240124L64.0087625,25.4040118240124L64.375125,25.4040118240124L64.68915,25.4040118240124L64.793825,25.4040118240124L64.84616249999999,25.4040118240124L65.05551249999999,25.4040118240124L65.2648625,25.4040118240124L65.421875,25.4040118240124L65.4742125,25.4040118240124L65.52655,25.4040118240124L65.631225,25.4040118240124L65.7359,25.4040118240124L66.2069375,50.80803088778136L66.25927499999999,66.05044232604273L66.41628750000001,75.19588918899953L66.468625,80.68315730677364L66.5209625,83.97551817743808L66.6256375,85.95093469983674L66.677975,87.13618461327594L66.992,87.84733456133948L67.20134999999999,88.27402453017757L67.2536875,88.53003851148044L67.3583625,88.68364690026219L67.4630375,88.77581193353122L67.62005,88.83111095349261L67.6723875,88.86429036546946L67.72472499999999,88.8841980126556L67.7770625,88.89614260096727L67.93407499999999,88.90330935395424L68.14342500000001,88.90760940574644L68.4051125,88.91018943682177L68.45745,88.91173745546696L68.50978749999999,88.91266626665407L68.8238125,88.91322355336635L69.1378375,88.9135579253937L69.3471875,88.91375854861013L69.5042,88.91387892253996L69.71355000000001,88.91395114689787L69.9229,88.91399448151263L70.027575,88.91402048228147L70.2892625,88.91403608274278L70.446275,88.91404544301957L71.5453625,88.91405105918562L71.6500375,88.9140544288853L71.702375,88.91405645070506L71.911725,88.91405766379695L72.0164,88.91405839165208L72.22575,88.91405882836516L72.33042499999999,88.914059090393L72.749125,88.9140592476097L73.06315000000001,88.91405934193972L73.27250000000001,88.91405939853774L73.6388625,88.91405943249656L73.69120000000001,88.91405945287183L73.7435375,88.914059465097L73.795875,88.91405947243211L74.05756249999999,88.91405947683316L74.16223749999999,88.9140594794738L74.31925,88.91405948105819L74.3715875,88.91405948200881L74.4762625,88.91405948257919L74.8949625,88.91405948292142L74.9473,88.91405948312675L75.10431249999999,88.91405948324996L75.470675,88.91405948332387L75.6276875,88.9140594833682L76.098725,88.91405948339484L76.2034,88.91405948341081L76.2557375,88.91405948342039L76.308075,88.91405948342614L76.46508750000001,88.9140594834296L76.517425,88.91405948343164L76.726775,88.9140594834329L76.98846250000001,88.91405948343363L77.0408,88.91405948343409L77.25015,88.91405948343437L77.3024875,88.91405948343453L77.35482499999999,88.91405948343461L77.4071625,88.91405948343467L77.6165125,88.91405948343468L77.66885,88.91405948343473L77.8258625,88.91405948343474L77.87819999999999,88.91405948343474L78.29690000000001,88.91405948343474L78.50625,88.91405948343474L78.610925,88.91405948343474L78.71560000000001,88.91405948343474L78.7679375,88.91405948343474L79.1343,88.91405948343474L79.18663749999999,88.91405948343474L79.23897500000001,88.91405948343474L79.3959875,88.91405948343474L79.8146875,88.91405948343474L79.9193625,88.91405948343474L80.1287125,88.91405948343474L80.18105,88.91405948343474L80.33806249999999,88.91405948343474L80.4427375,88.91405948343474L80.8091,88.91405948343474L81.3848125,88.91405948343474L81.4894875,88.91405948343474L81.8035125,88.91405948343474L81.85585,88.91405948343474L81.96052499999999,88.91405948343474L82.0652,88.91405948343474L82.27455,88.91405948343474L82.48389999999999,88.91405948343474L82.58857499999999,88.91405948343474L82.8502625,88.91405948343474L82.9026,88.91405948343474L82.9549375,88.91405948343474L83.3736375,88.91405948343474L83.68766249999999,88.91405948343474L83.8970125,88.91405948343474L83.94935,88.91405948343474L84.0016875,88.91405948343474L84.472725,88.91405948343474L84.5774,88.91405948343474L84.73441249999999,88.91405948343474L85.0484375,88.91405948343474L85.100775,88.91405948343474L85.4671375,88.91405948343474L85.57181250000001,88.91405948343474L86.61856250000001,88.91405948343474L86.6709,88.91405948343474L86.88025,88.91405948343474L86.9325875,88.91405948343474L86.98492499999999,88.91405948343474L87.927,88.91405948343474L88.0840125,88.91405948343474L88.1886875,88.91405948343474L88.55505,88.91405948343474L88.6073875,88.91405948343474L88.9214125,88.91405948343474L89.0260875,88.91405948343474L89.287775,88.91405948343474L89.39245000000001,88.91405948343474L89.49712500000001,88.91405948343474L89.706475,88.91405948343474L90.22985,88.91405948343474L90.64855,88.91405948343474L90.70088750000001,88.91405948343474L90.753225,88.91405948343474L90.8579,88.91405948343474L91.0149125,88.91405948343474L91.2766,88.91405948343474L91.4336125,88.91405948343474L91.74763750000001,88.91405948343474L91.8523125,88.91405948343474L91.9569875,88.91405948343474L92.009325,88.91405948343474L92.1663375,88.91405948343474L92.27101250000001,88.91405948343474L92.428025,88.91405948343474L92.846725,88.91405948343474L93.2130875,88.91405948343474L93.5271125,88.91405948343474L93.7364625,88.91405948343474L93.7888,88.91405948343474L93.84113749999999,88.91405948343474L93.893475,88.91405948343474L94.2075,88.91405948343474L94.36451249999999,88.91405948343474L94.730875,88.91405948343474L94.83555,88.91405948343474L94.99256249999999,88.91405948343474L95.04490000000001,88.91405948343474L95.2019125,88.91405948343474L95.51593749999999,88.91405948343474L95.62061250000001,88.91405948343474L95.777625,88.91405948343474L95.9346375,88.91405948343474L95.986975,88.91405948343474L96.09165,88.91405948343474L96.1439875,88.91405948343474L96.4580125,88.91405948343474L97.0860625,88.91405948343474L97.66177499999999,88.91405948343474L97.871125,88.91405948343474L98.3421625,88.91405948343474L98.60385000000001,88.91405948343474L98.6561875,88.91405948343474L98.8132,88.91405948343474L98.8655375,88.91405948343474L98.97021249999999,88.91405948343474L99.02255000000001,88.91405948343474L99.1795625,88.91405948343474L100.0693,88.91405948343474L100.1216375,88.91405948343474L100.173975,88.91405948343474L100.43566249999999,88.91405948343474L100.592675,88.91405948343474L100.802025,88.91405948343474L100.85436250000001,88.91405948343474L100.9067,88.91405948343474L101.11605,88.91405948343474L101.1683875,88.91405948343474L101.3254,88.91405948343474L101.53475,88.91405948343474L101.639425,88.91405948343474L102.37215,88.91405948343474L102.8431875,88.91405948343474L102.89552499999999,88.91405948343474L103.47123749999999,88.91405948343474L103.8899375,88.91405948343474L103.942275,88.91405948343474L104.0992875,88.91405948343474L104.2039625,88.91405948343474L104.2563,88.91405948343474L104.67500000000001,88.91405948343474L104.7273375,88.91405948343474L104.779675,88.91405948343474L104.989025,88.91405948343474L105.0937,88.91405948343474L105.19837500000001,88.91405948343474L105.617075,88.91405948343474L105.87876250000001,88.91405948343474L105.9311,88.91405948343474L106.0881125,88.91405948343474L106.454475,88.91405948343474L107.082525,88.91405948343474L107.3442125,88.91405948343474L107.39654999999999,88.91405948343474L107.501225,88.91405948343474L107.5535625,88.91405948343474L107.8675875,88.91405948343474L108.23395000000001,88.91405948343474L108.2862875,88.91405948343474L108.75732500000001,88.91405948343474L108.966675,88.91405948343474L109.07135,88.91405948343474L109.28070000000001,88.91405948343474L109.7517375,88.91405948343474L110.1181,88.91405948343474L110.17043749999999,88.91405948343474L110.432125,88.91405948343474L110.850825,88.91405948343474L110.9555,88.91405948343474L111.3218625,88.91405948343474L111.37419999999999,88.91405948343474L111.58355,88.91405948343474L111.8452375,88.91405948343474L112.00225,88.91405948343474L112.106925,88.91405948343474L112.2639375,88.91405948343474L112.42094999999999,88.91405948343474L112.6303,88.91405948343474L113.04899999999999,88.91405948343474L113.4677,88.91405948343474L113.572375,88.91405948343474L113.67705000000001,88.91405948343474L113.8340625,88.91405948343474L113.8864,88.91405948343474L114.200425,88.91405948343474L114.2527625,88.91405948343474L114.67146249999999,88.91405948343474L114.82847500000001,88.91405948343474L114.8808125,88.91405948343474L114.93315,88.91405948343474L114.9854875,88.91405948343474L115.0901625,88.91405948343474L115.247175,88.91405948343474L115.6135375,88.91405948343474L115.665875,88.91405948343474L116.03223750000001,88.91405948343474L116.084575,88.91405948343474L116.1369125,88.91405948343474L116.60795,88.91405948343474L116.8173,88.91405948343474L116.92197499999999,88.91405948343474L116.9743125,88.91405948343474L117.07898750000001,88.91405948343474L117.340675,88.91405948343474L117.3930125,88.91405948343474L117.4976875,88.91405948343474L117.55002499999999,88.91405948343474L117.60236250000001,88.91405948343474L117.86405,88.91405948343474L118.596775,88.91405948343474L119.0678125,88.91405948343474L119.3818375,88.91405948343474L119.7482,88.91405948343474L119.80053749999999,88.91405948343474L120.271575,88.91405948343474L120.6379375,88.91405948343474L121.05663750000001,88.91405948343474L121.108975,88.91405948343474L121.2659875,88.91405948343474L121.63235,88.91405948343474L121.737025,88.91405948343474L121.946375,88.91405948343474L122.46975,88.91405948343474L122.5220875,88.91405948343474L122.6791,88.91405948343474L122.9407875,88.91405948343474L123.1501375,88.91405948343474L123.83052500000001,88.91405948343474L123.93520000000001,88.91405948343474L123.9875375,88.91405948343474L124.30156249999999,88.91405948343474L124.3539,88.91405948343474L124.4062375,88.91405948343474L124.5109125,88.91405948343474L124.6155875,88.91405948343474L125.2436375,88.91405948343474L125.714675,88.91405948343474L125.924025,88.91405948343474L126.18571250000001,88.91405948343474L126.4997375,88.91405948343474L126.8137625,88.91405948343474L126.8661,88.91405948343474L127.18012499999999,88.91405948343474L127.389475,88.91405948343474L127.49415,88.91405948343474L127.59882499999999,88.91405948343474L127.91285,88.91405948343474L128.0698625,88.91405948343474L128.1745375,88.91405948343474L128.33155,88.91405948343474L128.4885625,88.91405948343474L128.645575,88.91405948343474L128.75025,88.91405948343474L129.1166125,88.91405948343474L129.22128750000002,88.91405948343474L129.8493375,88.91405948343474L129.901675,88.91405948343474L129.9540125,88.91405948343474L130.6867375,88.91405948343474L130.8960875,88.91405948343474L131.1054375,88.91405948343474L131.3147875,88.91405948343474L131.367125,88.91405948343474L131.52413750000002,88.91405948343474L131.6288125,101.61606901531923L131.7334875,109.23727473444991L132.1521875,113.80999816592832L132.25686249999998,116.55363222481537L132.413875,118.1998126601476L132.57088750000003,119.18752092134693L132.7279,119.78014587806655L132.83257500000002,120.1357208520983L132.9895875,120.34906583651735L133.1466,120.4770728271688L133.1989375,120.55387702155966L133.984,120.59995953819418L134.3503625,120.62760904817489L134.61204999999998,120.64419875416331L134.66438749999998,120.65415257775636L134.716725,120.6601248719122L134.8214,120.6637082484057L134.8737375,120.6658582743018L134.97841250000002,120.66714828983946L135.0830875,120.66792229916206L135.2924375,120.66838670475562L135.5017875,120.66866534811174L135.763475,120.66883253412541L135.86814999999999,120.66893284573362L136.2345125,120.66899303269855L136.3391875,120.66902914487753L136.391525,120.66905081218488L136.5485375,120.6690638125693L136.6532125,120.66907161279997L136.8625625,120.66907629293834L137.01957499999997,120.6690791010214L137.12425000000002,120.66908078587122L137.228925,120.66908179678111L137.2812625,120.66908240332705L137.80463749999998,120.66908276725461L137.856975,120.66908298561114L138.06632499999998,120.66908311662507L138.2233375,120.66908319523341L138.38035000000002,120.66908324239844L138.43268750000001,120.66908327069746L138.5897,120.66908328767686L138.64203750000001,120.66908329786449L138.7467125,120.66908330397708L139.0084,120.66908330764463L139.0607375,120.66908330984515L139.42710000000002,120.66908331116548L139.47943750000002,120.66908331195766L139.68878750000002,120.66908331243297L139.7934625,120.66908331271816L139.8981375,120.66908331288927L140.1074875,120.66908331299194L140.6308625,120.66908331305353L140.7355375,120.66908331309051L140.8402125,120.66908331311268L140.89255,120.66908331312598L141.1019,120.66908331313397L141.25891249999998,120.66908331313877L141.6776125,120.66908331314164L141.8869625,120.66908331314335L142.043975,120.6690833131444L142.6196875,120.66908331314501L142.8290375,120.66908331314539L142.9337125,120.66908331314562L143.090725,120.66908331314576L143.1954,120.66908331314585L143.2477375,120.66908331314588L143.35241249999999,120.6690833131459L143.4570875,120.66908331314592L143.509425,120.66908331314593L143.61409999999998,120.66908331314593L143.718775,120.66908331314595L143.7711125,120.66908331314595L143.98046250000002,120.66908331314595L144.0328,120.66908331314595L144.137475,120.66908331314595L144.2944875,120.66908331314595L144.556175,120.66908331314595L145.184225,120.66908331314595L145.393575,120.66908331314595L145.5505875,120.66908331314595L146.07396250000002,120.66908331314595L146.3879875,120.66908331314595L146.440325,120.66908331314595L146.54500000000002,120.66908331314595L146.7020125,120.66908331314595L146.859025,120.66908331314595L146.9113625,120.66908331314595L146.9637,120.66908331314595L147.487075,120.66908331314595L147.5394125,120.66908331314595L147.59175,120.66908331314595L147.696425,120.66908331314595L148.32447499999998,120.66908331314595L148.3768125,120.66908331314595L148.42915000000002,120.66908331314595L148.48148750000001,120.66908331314595L148.9001875,120.66908331314595L149.37122499999998,120.66908331314595L149.6329125,120.66908331314595L150.0516125,120.66908331314595L150.10395,120.66908331314595L150.2609625,120.66908331314595L150.836675,120.66908331314595L150.9936875,120.66908331314595L151.1507,120.66908331314595L151.2030375,120.66908331314595L151.255375,120.66908331314595L151.36005,120.66908331314595L151.77875,120.66908331314595L151.88342500000002,120.66908331314595L151.9881,120.66908331314595L152.09277500000002,120.66908331314595L152.61615,120.66908331314595L153.03485,120.66908331314595L153.0871875,120.66908331314595L153.348875,120.66908331314595L153.6629,120.66908331314595L154.0816,120.66908331314595L154.395625,120.66908331314595L154.4479625,120.66908331314595L154.5003,120.66908331314595L154.5526375,120.66908331314595L154.6573125,120.66908331314595L154.91899999999998,120.66908331314595L155.9134125,120.66908331314595L156.01808749999998,120.66908331314595L156.22743749999998,120.66908331314595L156.279775,120.66908331314595L156.80315,120.66908331314595L156.907825,120.66908331314595L157.06483749999998,120.66908331314595L157.117175,120.66908331314595L157.1695125,120.66908331314595L157.6928875,120.66908331314595L157.745225,120.66908331314595L157.9022375,120.66908331314595L158.0069125,120.66908331314595L158.2162625,120.66908331314595L158.32093749999999,120.66908331314595L158.47795000000002,120.66908331314595L158.582625,120.66908331314595L158.68730000000002,120.66908331314595L158.791975,120.66908331314595L159.2630125,120.66908331314595L159.4723625,120.66908331314595L159.6817125,120.66908331314595L159.78638750000002,120.66908331314595L159.9434,120.66908331314595L160.1004125,120.66908331314595L160.4144375,120.66908331314595L160.46677499999998,120.66908331314595L160.67612499999998,120.66908331314595L160.83313750000002,120.66908331314595L160.99015,120.66908331314595L161.09482500000001,120.66908331314595L161.3565125,120.66908331314595L161.56586249999998,120.66908331314595L161.722875,120.66908331314595L161.77521249999998,120.66908331314595L161.82754999999997,120.66908331314595L161.87988750000002,120.66908331314595L162.0369,120.66908331314595L162.24625,120.66908331314595L162.560275,120.66908331314595L162.61261249999998,120.66908331314595L162.769625,120.66908331314595L163.18832500000002,120.66908331314595L163.4500125,120.66908331314595L163.607025,120.66908331314595L163.7640375,120.66908331314595L163.816375,120.66908331314595L163.92104999999998,120.66908331314595L164.0780625,120.66908331314595L164.1304,120.66908331314595L164.23507500000002,120.66908331314595L164.5491,120.66908331314595L164.7061125,120.66908331314595L164.863125,120.66908331314595L164.9154625,120.66908331314595L165.1248125,120.66908331314595L165.4388375,120.66908331314595L166.119225,120.66908331314595L166.328575,120.66908331314595L166.43325000000002,120.66908331314595L166.6949375,120.66908331314595L166.956625,120.66908331314595L167.4276625,120.66908331314595L167.6370125,120.66908331314595L167.8463625,120.66908331314595L168.003375,120.66908331314595L168.78843750000001,120.66908331314595L169.3118125,120.66908331314595L169.36415,120.66908331314595L169.4164875,120.66908331314595L169.5735,120.66908331314595L169.887525,120.66908331314595L170.20155,120.66908331314595L170.2538875,120.66908331314595L170.306225,120.66908331314595L170.3585625,120.66908331314595L170.4109,120.66908331314595L170.4632375,120.66908331314595L170.51557499999998,120.66908331314595L170.934275,120.66908331314595L172.13803750000002,120.66908331314595L172.19037500000002,120.66908331314595L172.2427125,120.66908331314595L172.609075,120.66908331314595L173.18478750000003,120.66908331314595L173.2894625,120.66908331314595L173.4988125,120.66908331314595L173.9175125,120.66908331314595L173.96984999999998,120.66908331314595L174.1268625,120.66908331314595L174.23153749999997,120.66908331314595L174.28387500000002,120.66908331314595L174.38855,120.66908331314595L175.3829625,120.66908331314595L175.64465,120.66908331314595L175.8016625,120.66908331314595L175.958675,120.66908331314595L176.4297125,120.66908331314595L176.48205,120.66908331314595L176.796075,120.66908331314595L176.90075000000002,120.66908331314595L176.9530875,120.66908331314595L177.2671125,120.66908331314595L177.424125,120.66908331314595L177.4764625,120.66908331314595L177.73815000000002,127.0200880790882L177.842825,130.83069093865353L177.94750000000002,133.11705265439275L178.1045125,134.48886968383624L178.15685,135.31195990150238L178.57555,135.80581403210203L178.83723750000001,136.10212651046186L178.9419125,136.27991399747773L178.99425000000002,136.38658648968726L179.04658750000002,136.45058998501298L179.6223,136.4889920822084L180.145675,136.51203334052565L180.56437499999998,136.525858095516L181.4541125,136.5341529485102L181.7158,136.53912986030676L181.820475,136.54211600738466L181.87281249999998,136.54390769563142L182.029825,136.54498270857945L182.5532,136.5456277163483L182.867225,136.5460147210096L183.076575,136.5462469238064L183.3382625,136.54638624548443L183.4429375,136.54646983849128L183.5476125,136.54651999429538L183.6522875,136.54655008777786L183.75696250000001,136.54656814386732L183.9663125,136.54657897752102L184.01865,136.54658547771322L184.1756625,136.54658937782855L184.22799999999998,136.54659171789774L184.2803375,136.54659312193928L184.4896875,136.54659396436418L184.59436250000002,136.54659446981913L184.751375,136.5465947730921L184.80371250000002,136.54659495505587L184.9083875,136.54659506423414L185.170075,136.5465951297411L185.27474999999998,136.54659516904528L185.3270875,136.5465951926278L185.379425,136.54659520677728L185.69345,136.546595215267L185.798125,136.5465952203608L185.9551375,136.5465952234171L186.426175,136.54659522525088L186.58318749999998,136.54659522635114L186.68786250000002,136.5465952270113L186.7925375,136.5465952274074L186.8972125,136.54659522764507L187.0018875,136.54659522778766L187.472925,136.5465952278732L187.68227499999998,136.54659522792454L187.78695,136.54659522795535L187.9439625,136.54659522797382L188.3626625,136.5465952279849L188.5720125,136.54659522799156L188.7813625,136.54659522799557L189.09538750000002,136.54659522799795L189.46175,136.54659522799938L189.566425,136.54659522800026L189.8281125,136.54659522800077L190.194475,136.54659522800108L190.35148750000002,136.54659522800125L190.403825,136.54659522800137L190.6655125,136.54659522800145L190.71785,136.54659522800148L190.7701875,136.5465952280015L190.8748625,136.5465952280015L191.03187499999999,136.54659522800154L191.2935625,136.54659522800154L191.45057500000001,136.54659522800154L191.5029125,136.54659522800154L191.6075875,136.54659522800154L191.9216125,136.54659522800154L192.44498750000002,136.54659522800154L192.81135,136.54659522800154L192.9683625,136.54659522800154L193.0207,136.54659522800154L193.38706249999998,136.54659522800154L193.43939999999998,136.54659522800154L193.4917375,136.54659522800154L193.54407500000002,136.54659522800154L193.80576250000001,136.54659522800154L193.962775,136.54659522800154L195.218875,136.54659522800154L195.3758875,136.54659522800154L195.4805625,136.54659522800154L195.74225,136.54659522800154L195.89926250000002,136.54659522800154L195.9516,136.54659522800154L196.056275,136.54659522800154L196.1086125,136.54659522800154L196.474975,136.54659522800154L196.57965,136.54659522800154L196.684325,136.54659522800154L197.1553625,136.54659522800154L197.41705,136.54659522800154L197.4693875,136.54659522800154L197.7834125,136.54659522800154L197.88808749999998,136.54659522800154L197.99276250000003,136.54659522800154L198.0974375,136.54659522800154L198.3067875,136.54659522800154L198.4638,136.54659522800154L198.67315,136.54659522800154L199.14418750000002,136.54659522800154L199.196525,136.54659522800154L199.2488625,136.54659522800154L199.5628875,136.54659522800154L199.9815875,136.54659522800154L200.1909375,136.54659522800154L200.2956125,136.54659522800154L200.34795,136.54659522800154L200.40028750000002,136.54659522800154L200.6096375,136.54659522800154L200.87132499999998,136.54659522800154L201.2376875,136.54659522800154L201.6563875,136.54659522800154L201.8657375,136.54659522800154L202.0750875,136.54659522800154L202.17976249999998,136.54659522800154L202.49378750000002,136.54659522800154L202.6508,136.54659522800154L202.75547500000002,136.54659522800154L202.86015,136.54659522800154L202.964825,136.54659522800154L203.1218375,136.54659522800154L203.22651249999998,136.54659522800154L203.383525,136.54659522800154L203.59287500000002,136.54659522800154L203.69755,136.54659522800154L204.011575,136.54659522800154L204.2732625,136.54659522800154L204.3256,136.54659522800154L204.53494999999998,136.54659522800154L204.90131250000002,136.54659522800154L205.477025,136.54659522800154L205.6340375,136.54659522800154L205.686375,136.54659522800154L205.84338749999998,136.54659522800154L206.105075,136.54659522800154L206.4191,136.54659522800154L206.4714375,136.54659522800154L206.68078749999998,136.54659522800154L206.7854625,136.54659522800154L207.0994875,136.54659522800154L207.151825,136.54659522800154L207.25650000000002,136.54659522800154L207.46585,136.54659522800154L207.8322125,136.54659522800154L208.1462375,136.54659522800154L208.30325000000002,136.54659522800154L208.617275,136.54659522800154L209.03597499999998,136.54659522800154L209.1929875,136.54659522800154L209.2976625,136.54659522800154L209.35000000000002,136.54659522800154L209.61168750000002,136.54659522800154L209.664025,136.54659522800154L209.8210375,136.54659522800154L209.9257125,136.54659522800154L209.97805,136.54659522800154L210.08272499999998,136.54659522800154L210.34441249999998,136.54659522800154L210.8677875,136.54659522800154L211.1818125,136.54659522800154L211.2864875,136.54659522800154L211.33882499999999,136.54659522800154L211.54817500000001,136.54659522800154L211.6005125,136.54659522800154L211.8098625,136.54659522800154L211.9145375,136.54659522800154L212.2285625,136.54659522800154L212.2809,136.54659522800154L212.43791249999998,136.54659522800154L212.6472625,136.54659522800154L213.27531249999998,136.54659522800154L213.53699999999998,136.54659522800154L213.5893375,136.54659522800154L213.69401249999999,136.54659522800154L214.16505,136.54659522800154L214.2173875,136.54659522800154L214.5314125,136.54659522800154L214.58374999999998,136.54659522800154L214.688425,136.54659522800154L215.316475,136.54659522800154L215.525825,136.54659522800154L215.63049999999998,136.54659522800154L215.735175,136.54659522800154L215.89218749999998,136.54659522800154L216.0492,136.54659522800154L216.5202375,136.54659522800154L216.8342625,136.54659522800154L216.93893749999998,136.54659522800154L217.51465000000002,136.54659522800154L217.5669875,136.54659522800154L217.8810125,136.54659522800154L218.24737499999998,136.54659522800154L219.503475,136.54659522800154L219.5558125,136.54659522800154L219.66048750000002,136.54659522800154L219.8175,136.54659522800154L219.922175,136.54659522800154L221.0212625,136.54659522800154L221.17827499999999,136.54659522800154L221.38762499999999,136.54659522800154L221.43996249999998,136.54659522800154L221.4923,136.54659522800154L221.596975,136.54659522800154L221.80632500000002,136.54659522800154L221.9633375,136.54659522800154L222.0680125,136.54659522800154L222.1726875,136.54659522800154L222.53905,136.54659522800154L222.69606249999998,136.54659522800154L222.74839999999998,136.54659522800154L222.9054125,136.54659522800154L223.1671,136.54659522800154L223.5858,136.54659522800154L223.79514999999998,136.54659522800154L223.89982500000002,136.54659522800154L224.0045,136.54659522800154L224.0568375,136.54659522800154L224.37086250000002,136.54659522800154L224.5802125,136.54659522800154L224.6848875,136.54659522800154L224.7895625,136.54659522800154L224.946575,136.54659522800154L225.41761250000002,136.54659522800154L225.5222875,136.54659522800154L225.574625,136.54659522800154L225.783975,136.54659522800154L226.0456625,136.54659522800154L226.15033749999998,136.54659522800154L226.6737125,136.54659522800154L226.7783875,136.54659522800154L226.8830625,136.54659522800154L227.56345000000002,136.54659522800154L227.7728,136.54659522800154L227.877475,136.54659522800154L228.40085,136.54659522800154L228.6625375,136.54659522800154L229.0289,136.54659522800154L229.1859125,136.54659522800154L229.2905875,136.54659522800154L229.6046125,136.54659522800154L229.970975,136.54659522800154L230.3373375,136.54659522800154L230.38967499999998,136.54659522800154L230.4420125,136.54659522800154L230.5466875,136.54659522800154L230.70370000000003,136.54659522800154L230.808375,136.54659522800154L231.1224,136.54659522800154L231.33175,136.54659522800154L231.3840875,136.54659522800154L231.69811249999998,136.54659522800154L231.75045,136.54659522800154L231.80278750000002,136.54659522800154L232.06447500000002,136.54659522800154L232.1168125,136.54659522800154L232.3261625,136.54659522800154L232.901875,136.54659522800154L233.2159,136.54659522800154L233.42525,136.54659522800154L233.529925,136.54659522800154L233.6869375,136.54659522800154L233.79161249999999,136.54659522800154L234.1056375,136.54659522800154L234.26265,136.54659522800154L234.472,136.54659522800154L234.68135,136.54659522800154L234.786025,136.54659522800154L234.9430375,136.54659522800154L235.0477125,136.54659522800154L235.25706250000002,136.54659522800154L235.3617375,136.54659522800154L235.46641250000002,136.54659522800154" style="fill: none;" fill="none"></path></g></g></g></g><g opacity="0.20000000298023224"><g><g><g><path stroke="rgb(255, 112, 67)" stroke-width="2px" d="M26.4304375,25.404011824012343L26.953812499999998,25.404011824012343L27.110825,25.404011824012343L27.424850000000003,25.404011824012343L28.262249999999998,25.404011824012343L28.366925,25.404011824012343L28.4716,25.404011824012343L28.5239375,25.404011824012343L28.6286125,25.404011824012343L28.9426375,25.404011824012343L28.994975,25.404011824012343L29.099649999999997,25.404011824012343L29.570687500000002,25.404011824012343L29.8847125,25.404011824012343L29.93705,25.404011824012343L29.9893875,25.404011824012343L30.041725,25.404011824012343L30.3034125,25.404011824012343L30.7221125,25.404011824012343L31.088475,25.404011824012343L31.507174999999997,25.404011824012343L31.6641875,25.404011824012343L31.716525,25.404011824012343L32.0828875,25.404011824012343L32.344575,25.404011824012343L32.763275,25.404011824012343L32.9202875,25.404011824012343L32.972625,25.404011824012343L33.4436625,25.404011824012343L33.5483375,25.404011824012343L33.600674999999995,25.404011824012343L34.019375000000004,25.404011824012343L34.281062500000004,25.404011824012343L34.438075,25.404011824012343L34.9091125,25.404011824012343L34.96145,25.404011824012343L35.4324875,25.404011824012343L35.484825,25.404011824012343L35.7465125,25.404011824012343L35.8511875,25.404011824012343L35.903524999999995,25.404011824012343L36.112875,25.404011824012343L36.531575000000004,25.404011824012343L36.950275,25.404011824012343L37.0026125,25.404011824012343L37.05495,25.404011824012343L37.2643,25.404011824012343L37.8400125,25.404011824012343L38.1540375,25.404011824012343L38.415725,25.404011824012343L38.5727375,25.404011824012343L39.2007875,25.404011824012343L39.5148125,25.404011824012343L39.7765,25.404011824012343L39.933512500000006,25.404011824012343L40.1428625,25.404011824012343L40.3522125,25.404011824012343L40.45688749999999,25.404011824012343L41.4513,25.404011824012343L41.7129875,25.404011824012343L41.765325,25.404011824012343L42.0270125,25.404011824012343L42.2363625,25.404011824012343L42.2887,25.404011824012343L42.393375,25.404011824012343L42.812075,25.404011824012343L42.8644125,25.404011824012343L43.1784375,25.404011824012343L43.230775,25.404011824012343L43.283112499999994,25.404011824012343L43.440125,25.404011824012343L43.9111625,25.404011824012343L44.3298625,25.404011824012343L45.1672625,25.404011824012343L45.3766125,25.404011824012343L45.6906375,25.404011824012343L45.8999875,25.404011824012343L46.0046625,25.404011824012343L46.6327125,25.404011824012343L46.685050000000004,25.404011824012343L47.522450000000006,25.404011824012343L48.2028375,25.404011824012343L48.255175,25.404011824012343L48.359849999999994,25.404011824012343L48.673875,25.404011824012343L49.1449125,25.404011824012343L49.249587500000004,25.404011824012343L49.301925000000004,25.404011824012343L49.4589375,25.404011824012343L49.772962500000006,25.404011824012343L50.244,25.404011824012343L50.4010125,25.404011824012343L50.45335,25.404011824012343L50.9243875,25.404011824012343L50.976725,25.404011824012343L51.761787500000004,25.404011824012343L51.8664625,25.404011824012343L51.9711375,25.404011824012343L52.7038625,25.404011824012343L52.96555,25.404011824012343L53.070225,25.404011824012343L53.2272375,25.404011824012343L53.645937499999995,25.404011824012343L53.959962499999996,25.404011824012343L54.0646375,25.404011824012343L54.22165,25.404011824012343L54.535675,25.404011824012343L54.7973625,25.404011824012343L55.3207375,25.404011824012343L55.4254125,25.404011824012343L55.6347625,25.404011824012343L55.948787499999995,25.404011824012343L56.1581375,25.404011824012343L56.210474999999995,25.404011824012343L56.472162499999996,25.404011824012343L56.5768375,25.404011824012343L56.629175000000004,25.404011824012343L56.73385,25.404011824012343L56.838525000000004,25.404011824012343L56.890862500000004,25.404011824012343L57.152550000000005,25.404011824012343L57.2048875,25.404011824012343L57.67592500000001,25.404011824012343L57.98995,25.404011824012343L58.094625,25.404011824012343L58.3563125,25.404011824012343L58.618,25.404011824012343L58.722674999999995,25.404011824012343L59.350725,25.404011824012343L59.7170875,25.404011824012343L59.769425,25.404011824012343L59.8741,25.404011824012343L59.926437500000006,25.404011824012343L59.978775,25.404011824012343L60.0311125,25.404011824012343L60.1357875,25.404011824012343L60.2928,25.404011824012343L60.50215,25.404011824012343L60.763837499999994,25.404011824012343L60.92085,25.404011824012343L61.1302,25.404011824012343L61.287212499999995,25.404011824012343L61.33955,25.404011824012343L61.444225,25.404011824012343L61.496562499999996,25.404011824012343L61.653575000000004,25.404011824012343L61.705912500000004,25.404011824012343L61.862925,25.404011824012343L61.915262500000004,25.404011824012343L62.17695,25.404011824012343L62.229287500000005,25.404011824012343L62.59565,25.404011824012343L62.75266250000001,25.404011824012343L62.9620125,25.404011824012343L63.119025,25.404011824012343L63.2237,25.404011824012343L63.328375,25.404011824012343L63.537724999999995,25.404011824012343L63.747075,25.404011824012343L63.9040875,25.404011824012343L63.956425,25.404011824012343L64.0087625,25.404011824012343L64.375125,25.404011824012343L64.68915,25.404011824012343L64.793825,25.404011824012343L64.84616249999999,25.404011824012343L65.05551249999999,25.404011824012343L65.2648625,25.404011824012343L65.421875,25.404011824012343L65.4742125,25.404011824012343L65.52655,25.404011824012343L65.631225,25.404011824012343L65.7359,25.404011824012343L66.2069375,88.91405948343474L66.25927499999999,88.91405948343474L66.41628750000001,88.91405948343474L66.468625,88.91405948343474L66.5209625,88.91405948343474L66.6256375,88.91405948343474L66.677975,88.91405948343474L66.992,88.91405948343474L67.20134999999999,88.91405948343474L67.2536875,88.91405948343474L67.3583625,88.91405948343474L67.4630375,88.91405948343474L67.62005,88.91405948343474L67.6723875,88.91405948343474L67.72472499999999,88.91405948343474L67.7770625,88.91405948343474L67.93407499999999,88.91405948343474L68.14342500000001,88.91405948343474L68.4051125,88.91405948343474L68.45745,88.91405948343474L68.50978749999999,88.91405948343474L68.8238125,88.91405948343474L69.1378375,88.91405948343474L69.3471875,88.91405948343474L69.5042,88.91405948343474L69.71355000000001,88.91405948343474L69.9229,88.91405948343474L70.027575,88.91405948343474L70.2892625,88.91405948343474L70.446275,88.91405948343474L71.5453625,88.91405948343474L71.6500375,88.91405948343474L71.702375,88.91405948343474L71.911725,88.91405948343474L72.0164,88.91405948343474L72.22575,88.91405948343474L72.33042499999999,88.91405948343474L72.749125,88.91405948343474L73.06315000000001,88.91405948343474L73.27250000000001,88.91405948343474L73.6388625,88.91405948343474L73.69120000000001,88.91405948343474L73.7435375,88.91405948343474L73.795875,88.91405948343474L74.05756249999999,88.91405948343474L74.16223749999999,88.91405948343474L74.31925,88.91405948343474L74.3715875,88.91405948343474L74.4762625,88.91405948343474L74.8949625,88.91405948343474L74.9473,88.91405948343474L75.10431249999999,88.91405948343474L75.470675,88.91405948343474L75.6276875,88.91405948343474L76.098725,88.91405948343474L76.2034,88.91405948343474L76.2557375,88.91405948343474L76.308075,88.91405948343474L76.46508750000001,88.91405948343474L76.517425,88.91405948343474L76.726775,88.91405948343474L76.98846250000001,88.91405948343474L77.0408,88.91405948343474L77.25015,88.91405948343474L77.3024875,88.91405948343474L77.35482499999999,88.91405948343474L77.4071625,88.91405948343474L77.6165125,88.91405948343474L77.66885,88.91405948343474L77.8258625,88.91405948343474L77.87819999999999,88.91405948343474L78.29690000000001,88.91405948343474L78.50625,88.91405948343474L78.610925,88.91405948343474L78.71560000000001,88.91405948343474L78.7679375,88.91405948343474L79.1343,88.91405948343474L79.18663749999999,88.91405948343474L79.23897500000001,88.91405948343474L79.3959875,88.91405948343474L79.8146875,88.91405948343474L79.9193625,88.91405948343474L80.1287125,88.91405948343474L80.18105,88.91405948343474L80.33806249999999,88.91405948343474L80.4427375,88.91405948343474L80.8091,88.91405948343474L81.3848125,88.91405948343474L81.4894875,88.91405948343474L81.8035125,88.91405948343474L81.85585,88.91405948343474L81.96052499999999,88.91405948343474L82.0652,88.91405948343474L82.27455,88.91405948343474L82.48389999999999,88.91405948343474L82.58857499999999,88.91405948343474L82.8502625,88.91405948343474L82.9026,88.91405948343474L82.9549375,88.91405948343474L83.3736375,88.91405948343474L83.68766249999999,88.91405948343474L83.8970125,88.91405948343474L83.94935,88.91405948343474L84.0016875,88.91405948343474L84.472725,88.91405948343474L84.5774,88.91405948343474L84.73441249999999,88.91405948343474L85.0484375,88.91405948343474L85.100775,88.91405948343474L85.4671375,88.91405948343474L85.57181250000001,88.91405948343474L86.61856250000001,88.91405948343474L86.6709,88.91405948343474L86.88025,88.91405948343474L86.9325875,88.91405948343474L86.98492499999999,88.91405948343474L87.927,88.91405948343474L88.0840125,88.91405948343474L88.1886875,88.91405948343474L88.55505,88.91405948343474L88.6073875,88.91405948343474L88.9214125,88.91405948343474L89.0260875,88.91405948343474L89.287775,88.91405948343474L89.39245000000001,88.91405948343474L89.49712500000001,88.91405948343474L89.706475,88.91405948343474L90.22985,88.91405948343474L90.64855,88.91405948343474L90.70088750000001,88.91405948343474L90.753225,88.91405948343474L90.8579,88.91405948343474L91.0149125,88.91405948343474L91.2766,88.91405948343474L91.4336125,88.91405948343474L91.74763750000001,88.91405948343474L91.8523125,88.91405948343474L91.9569875,88.91405948343474L92.009325,88.91405948343474L92.1663375,88.91405948343474L92.27101250000001,88.91405948343474L92.428025,88.91405948343474L92.846725,88.91405948343474L93.2130875,88.91405948343474L93.5271125,88.91405948343474L93.7364625,88.91405948343474L93.7888,88.91405948343474L93.84113749999999,88.91405948343474L93.893475,88.91405948343474L94.2075,88.91405948343474L94.36451249999999,88.91405948343474L94.730875,88.91405948343474L94.83555,88.91405948343474L94.99256249999999,88.91405948343474L95.04490000000001,88.91405948343474L95.2019125,88.91405948343474L95.51593749999999,88.91405948343474L95.62061250000001,88.91405948343474L95.777625,88.91405948343474L95.9346375,88.91405948343474L95.986975,88.91405948343474L96.09165,88.91405948343474L96.1439875,88.91405948343474L96.4580125,88.91405948343474L97.0860625,88.91405948343474L97.66177499999999,88.91405948343474L97.871125,88.91405948343474L98.3421625,88.91405948343474L98.60385000000001,88.91405948343474L98.6561875,88.91405948343474L98.8132,88.91405948343474L98.8655375,88.91405948343474L98.97021249999999,88.91405948343474L99.02255000000001,88.91405948343474L99.1795625,88.91405948343474L100.0693,88.91405948343474L100.1216375,88.91405948343474L100.173975,88.91405948343474L100.43566249999999,88.91405948343474L100.592675,88.91405948343474L100.802025,88.91405948343474L100.85436250000001,88.91405948343474L100.9067,88.91405948343474L101.11605,88.91405948343474L101.1683875,88.91405948343474L101.3254,88.91405948343474L101.53475,88.91405948343474L101.639425,88.91405948343474L102.37215,88.91405948343474L102.8431875,88.91405948343474L102.89552499999999,88.91405948343474L103.47123749999999,88.91405948343474L103.8899375,88.91405948343474L103.942275,88.91405948343474L104.0992875,88.91405948343474L104.2039625,88.91405948343474L104.2563,88.91405948343474L104.67500000000001,88.91405948343474L104.7273375,88.91405948343474L104.779675,88.91405948343474L104.989025,88.91405948343474L105.0937,88.91405948343474L105.19837500000001,88.91405948343474L105.617075,88.91405948343474L105.87876250000001,88.91405948343474L105.9311,88.91405948343474L106.0881125,88.91405948343474L106.454475,88.91405948343474L107.082525,88.91405948343474L107.3442125,88.91405948343474L107.39654999999999,88.91405948343474L107.501225,88.91405948343474L107.5535625,88.91405948343474L107.8675875,88.91405948343474L108.23395000000001,88.91405948343474L108.2862875,88.91405948343474L108.75732500000001,88.91405948343474L108.966675,88.91405948343474L109.07135,88.91405948343474L109.28070000000001,88.91405948343474L109.7517375,88.91405948343474L110.1181,88.91405948343474L110.17043749999999,88.91405948343474L110.432125,88.91405948343474L110.850825,88.91405948343474L110.9555,88.91405948343474L111.3218625,88.91405948343474L111.37419999999999,88.91405948343474L111.58355,88.91405948343474L111.8452375,88.91405948343474L112.00225,88.91405948343474L112.106925,88.91405948343474L112.2639375,88.91405948343474L112.42094999999999,88.91405948343474L112.6303,88.91405948343474L113.04899999999999,88.91405948343474L113.4677,88.91405948343474L113.572375,88.91405948343474L113.67705000000001,88.91405948343474L113.8340625,88.91405948343474L113.8864,88.91405948343474L114.200425,88.91405948343474L114.2527625,88.91405948343474L114.67146249999999,88.91405948343474L114.82847500000001,88.91405948343474L114.8808125,88.91405948343474L114.93315,88.91405948343474L114.9854875,88.91405948343474L115.0901625,88.91405948343474L115.247175,88.91405948343474L115.6135375,88.91405948343474L115.665875,88.91405948343474L116.03223750000001,88.91405948343474L116.084575,88.91405948343474L116.1369125,88.91405948343474L116.60795,88.91405948343474L116.8173,88.91405948343474L116.92197499999999,88.91405948343474L116.9743125,88.91405948343474L117.07898750000001,88.91405948343474L117.340675,88.91405948343474L117.3930125,88.91405948343474L117.4976875,88.91405948343474L117.55002499999999,88.91405948343474L117.60236250000001,88.91405948343474L117.86405,88.91405948343474L118.596775,88.91405948343474L119.0678125,88.91405948343474L119.3818375,88.91405948343474L119.7482,88.91405948343474L119.80053749999999,88.91405948343474L120.271575,88.91405948343474L120.6379375,88.91405948343474L121.05663750000001,88.91405948343474L121.108975,88.91405948343474L121.2659875,88.91405948343474L121.63235,88.91405948343474L121.737025,88.91405948343474L121.946375,88.91405948343474L122.46975,88.91405948343474L122.5220875,88.91405948343474L122.6791,88.91405948343474L122.9407875,88.91405948343474L123.1501375,88.91405948343474L123.83052500000001,88.91405948343474L123.93520000000001,88.91405948343474L123.9875375,88.91405948343474L124.30156249999999,88.91405948343474L124.3539,88.91405948343474L124.4062375,88.91405948343474L124.5109125,88.91405948343474L124.6155875,88.91405948343474L125.2436375,88.91405948343474L125.714675,88.91405948343474L125.924025,88.91405948343474L126.18571250000001,88.91405948343474L126.4997375,88.91405948343474L126.8137625,88.91405948343474L126.8661,88.91405948343474L127.18012499999999,88.91405948343474L127.389475,88.91405948343474L127.49415,88.91405948343474L127.59882499999999,88.91405948343474L127.91285,88.91405948343474L128.0698625,88.91405948343474L128.1745375,88.91405948343474L128.33155,88.91405948343474L128.4885625,88.91405948343474L128.645575,88.91405948343474L128.75025,88.91405948343474L129.1166125,88.91405948343474L129.22128750000002,88.91405948343474L129.8493375,88.91405948343474L129.901675,88.91405948343474L129.9540125,88.91405948343474L130.6867375,88.91405948343474L130.8960875,88.91405948343474L131.1054375,88.91405948343474L131.3147875,88.91405948343474L131.367125,88.91405948343474L131.52413750000002,88.91405948343474L131.6288125,120.66908331314595L131.7334875,120.66908331314595L132.1521875,120.66908331314595L132.25686249999998,120.66908331314595L132.413875,120.66908331314595L132.57088750000003,120.66908331314595L132.7279,120.66908331314595L132.83257500000002,120.66908331314595L132.9895875,120.66908331314595L133.1466,120.66908331314595L133.1989375,120.66908331314595L133.984,120.66908331314595L134.3503625,120.66908331314595L134.61204999999998,120.66908331314595L134.66438749999998,120.66908331314595L134.716725,120.66908331314595L134.8214,120.66908331314595L134.8737375,120.66908331314595L134.97841250000002,120.66908331314595L135.0830875,120.66908331314595L135.2924375,120.66908331314595L135.5017875,120.66908331314595L135.763475,120.66908331314595L135.86814999999999,120.66908331314595L136.2345125,120.66908331314595L136.3391875,120.66908331314595L136.391525,120.66908331314595L136.5485375,120.66908331314595L136.6532125,120.66908331314595L136.8625625,120.66908331314595L137.01957499999997,120.66908331314595L137.12425000000002,120.66908331314595L137.228925,120.66908331314595L137.2812625,120.66908331314595L137.80463749999998,120.66908331314595L137.856975,120.66908331314595L138.06632499999998,120.66908331314595L138.2233375,120.66908331314595L138.38035000000002,120.66908331314595L138.43268750000001,120.66908331314595L138.5897,120.66908331314595L138.64203750000001,120.66908331314595L138.7467125,120.66908331314595L139.0084,120.66908331314595L139.0607375,120.66908331314595L139.42710000000002,120.66908331314595L139.47943750000002,120.66908331314595L139.68878750000002,120.66908331314595L139.7934625,120.66908331314595L139.8981375,120.66908331314595L140.1074875,120.66908331314595L140.6308625,120.66908331314595L140.7355375,120.66908331314595L140.8402125,120.66908331314595L140.89255,120.66908331314595L141.1019,120.66908331314595L141.25891249999998,120.66908331314595L141.6776125,120.66908331314595L141.8869625,120.66908331314595L142.043975,120.66908331314595L142.6196875,120.66908331314595L142.8290375,120.66908331314595L142.9337125,120.66908331314595L143.090725,120.66908331314595L143.1954,120.66908331314595L143.2477375,120.66908331314595L143.35241249999999,120.66908331314595L143.4570875,120.66908331314595L143.509425,120.66908331314595L143.61409999999998,120.66908331314595L143.718775,120.66908331314595L143.7711125,120.66908331314595L143.98046250000002,120.66908331314595L144.0328,120.66908331314595L144.137475,120.66908331314595L144.2944875,120.66908331314595L144.556175,120.66908331314595L145.184225,120.66908331314595L145.393575,120.66908331314595L145.5505875,120.66908331314595L146.07396250000002,120.66908331314595L146.3879875,120.66908331314595L146.440325,120.66908331314595L146.54500000000002,120.66908331314595L146.7020125,120.66908331314595L146.859025,120.66908331314595L146.9113625,120.66908331314595L146.9637,120.66908331314595L147.487075,120.66908331314595L147.5394125,120.66908331314595L147.59175,120.66908331314595L147.696425,120.66908331314595L148.32447499999998,120.66908331314595L148.3768125,120.66908331314595L148.42915000000002,120.66908331314595L148.48148750000001,120.66908331314595L148.9001875,120.66908331314595L149.37122499999998,120.66908331314595L149.6329125,120.66908331314595L150.0516125,120.66908331314595L150.10395,120.66908331314595L150.2609625,120.66908331314595L150.836675,120.66908331314595L150.9936875,120.66908331314595L151.1507,120.66908331314595L151.2030375,120.66908331314595L151.255375,120.66908331314595L151.36005,120.66908331314595L151.77875,120.66908331314595L151.88342500000002,120.66908331314595L151.9881,120.66908331314595L152.09277500000002,120.66908331314595L152.61615,120.66908331314595L153.03485,120.66908331314595L153.0871875,120.66908331314595L153.348875,120.66908331314595L153.6629,120.66908331314595L154.0816,120.66908331314595L154.395625,120.66908331314595L154.4479625,120.66908331314595L154.5003,120.66908331314595L154.5526375,120.66908331314595L154.6573125,120.66908331314595L154.91899999999998,120.66908331314595L155.9134125,120.66908331314595L156.01808749999998,120.66908331314595L156.22743749999998,120.66908331314595L156.279775,120.66908331314595L156.80315,120.66908331314595L156.907825,120.66908331314595L157.06483749999998,120.66908331314595L157.117175,120.66908331314595L157.1695125,120.66908331314595L157.6928875,120.66908331314595L157.745225,120.66908331314595L157.9022375,120.66908331314595L158.0069125,120.66908331314595L158.2162625,120.66908331314595L158.32093749999999,120.66908331314595L158.47795000000002,120.66908331314595L158.582625,120.66908331314595L158.68730000000002,120.66908331314595L158.791975,120.66908331314595L159.2630125,120.66908331314595L159.4723625,120.66908331314595L159.6817125,120.66908331314595L159.78638750000002,120.66908331314595L159.9434,120.66908331314595L160.1004125,120.66908331314595L160.4144375,120.66908331314595L160.46677499999998,120.66908331314595L160.67612499999998,120.66908331314595L160.83313750000002,120.66908331314595L160.99015,120.66908331314595L161.09482500000001,120.66908331314595L161.3565125,120.66908331314595L161.56586249999998,120.66908331314595L161.722875,120.66908331314595L161.77521249999998,120.66908331314595L161.82754999999997,120.66908331314595L161.87988750000002,120.66908331314595L162.0369,120.66908331314595L162.24625,120.66908331314595L162.560275,120.66908331314595L162.61261249999998,120.66908331314595L162.769625,120.66908331314595L163.18832500000002,120.66908331314595L163.4500125,120.66908331314595L163.607025,120.66908331314595L163.7640375,120.66908331314595L163.816375,120.66908331314595L163.92104999999998,120.66908331314595L164.0780625,120.66908331314595L164.1304,120.66908331314595L164.23507500000002,120.66908331314595L164.5491,120.66908331314595L164.7061125,120.66908331314595L164.863125,120.66908331314595L164.9154625,120.66908331314595L165.1248125,120.66908331314595L165.4388375,120.66908331314595L166.119225,120.66908331314595L166.328575,120.66908331314595L166.43325000000002,120.66908331314595L166.6949375,120.66908331314595L166.956625,120.66908331314595L167.4276625,120.66908331314595L167.6370125,120.66908331314595L167.8463625,120.66908331314595L168.003375,120.66908331314595L168.78843750000001,120.66908331314595L169.3118125,120.66908331314595L169.36415,120.66908331314595L169.4164875,120.66908331314595L169.5735,120.66908331314595L169.887525,120.66908331314595L170.20155,120.66908331314595L170.2538875,120.66908331314595L170.306225,120.66908331314595L170.3585625,120.66908331314595L170.4109,120.66908331314595L170.4632375,120.66908331314595L170.51557499999998,120.66908331314595L170.934275,120.66908331314595L172.13803750000002,120.66908331314595L172.19037500000002,120.66908331314595L172.2427125,120.66908331314595L172.609075,120.66908331314595L173.18478750000003,120.66908331314595L173.2894625,120.66908331314595L173.4988125,120.66908331314595L173.9175125,120.66908331314595L173.96984999999998,120.66908331314595L174.1268625,120.66908331314595L174.23153749999997,120.66908331314595L174.28387500000002,120.66908331314595L174.38855,120.66908331314595L175.3829625,120.66908331314595L175.64465,120.66908331314595L175.8016625,120.66908331314595L175.958675,120.66908331314595L176.4297125,120.66908331314595L176.48205,120.66908331314595L176.796075,120.66908331314595L176.90075000000002,120.66908331314595L176.9530875,120.66908331314595L177.2671125,120.66908331314595L177.424125,120.66908331314595L177.4764625,120.66908331314595L177.73815000000002,136.54659522800154L177.842825,136.54659522800154L177.94750000000002,136.54659522800154L178.1045125,136.54659522800154L178.15685,136.54659522800154L178.57555,136.54659522800154L178.83723750000001,136.54659522800154L178.9419125,136.54659522800154L178.99425000000002,136.54659522800154L179.04658750000002,136.54659522800154L179.6223,136.54659522800154L180.145675,136.54659522800154L180.56437499999998,136.54659522800154L181.4541125,136.54659522800154L181.7158,136.54659522800154L181.820475,136.54659522800154L181.87281249999998,136.54659522800154L182.029825,136.54659522800154L182.5532,136.54659522800154L182.867225,136.54659522800154L183.076575,136.54659522800154L183.3382625,136.54659522800154L183.4429375,136.54659522800154L183.5476125,136.54659522800154L183.6522875,136.54659522800154L183.75696250000001,136.54659522800154L183.9663125,136.54659522800154L184.01865,136.54659522800154L184.1756625,136.54659522800154L184.22799999999998,136.54659522800154L184.2803375,136.54659522800154L184.4896875,136.54659522800154L184.59436250000002,136.54659522800154L184.751375,136.54659522800154L184.80371250000002,136.54659522800154L184.9083875,136.54659522800154L185.170075,136.54659522800154L185.27474999999998,136.54659522800154L185.3270875,136.54659522800154L185.379425,136.54659522800154L185.69345,136.54659522800154L185.798125,136.54659522800154L185.9551375,136.54659522800154L186.426175,136.54659522800154L186.58318749999998,136.54659522800154L186.68786250000002,136.54659522800154L186.7925375,136.54659522800154L186.8972125,136.54659522800154L187.0018875,136.54659522800154L187.472925,136.54659522800154L187.68227499999998,136.54659522800154L187.78695,136.54659522800154L187.9439625,136.54659522800154L188.3626625,136.54659522800154L188.5720125,136.54659522800154L188.7813625,136.54659522800154L189.09538750000002,136.54659522800154L189.46175,136.54659522800154L189.566425,136.54659522800154L189.8281125,136.54659522800154L190.194475,136.54659522800154L190.35148750000002,136.54659522800154L190.403825,136.54659522800154L190.6655125,136.54659522800154L190.71785,136.54659522800154L190.7701875,136.54659522800154L190.8748625,136.54659522800154L191.03187499999999,136.54659522800154L191.2935625,136.54659522800154L191.45057500000001,136.54659522800154L191.5029125,136.54659522800154L191.6075875,136.54659522800154L191.9216125,136.54659522800154L192.44498750000002,136.54659522800154L192.81135,136.54659522800154L192.9683625,136.54659522800154L193.0207,136.54659522800154L193.38706249999998,136.54659522800154L193.43939999999998,136.54659522800154L193.4917375,136.54659522800154L193.54407500000002,136.54659522800154L193.80576250000001,136.54659522800154L193.962775,136.54659522800154L195.218875,136.54659522800154L195.3758875,136.54659522800154L195.4805625,136.54659522800154L195.74225,136.54659522800154L195.89926250000002,136.54659522800154L195.9516,136.54659522800154L196.056275,136.54659522800154L196.1086125,136.54659522800154L196.474975,136.54659522800154L196.57965,136.54659522800154L196.684325,136.54659522800154L197.1553625,136.54659522800154L197.41705,136.54659522800154L197.4693875,136.54659522800154L197.7834125,136.54659522800154L197.88808749999998,136.54659522800154L197.99276250000003,136.54659522800154L198.0974375,136.54659522800154L198.3067875,136.54659522800154L198.4638,136.54659522800154L198.67315,136.54659522800154L199.14418750000002,136.54659522800154L199.196525,136.54659522800154L199.2488625,136.54659522800154L199.5628875,136.54659522800154L199.9815875,136.54659522800154L200.1909375,136.54659522800154L200.2956125,136.54659522800154L200.34795,136.54659522800154L200.40028750000002,136.54659522800154L200.6096375,136.54659522800154L200.87132499999998,136.54659522800154L201.2376875,136.54659522800154L201.6563875,136.54659522800154L201.8657375,136.54659522800154L202.0750875,136.54659522800154L202.17976249999998,136.54659522800154L202.49378750000002,136.54659522800154L202.6508,136.54659522800154L202.75547500000002,136.54659522800154L202.86015,136.54659522800154L202.964825,136.54659522800154L203.1218375,136.54659522800154L203.22651249999998,136.54659522800154L203.383525,136.54659522800154L203.59287500000002,136.54659522800154L203.69755,136.54659522800154L204.011575,136.54659522800154L204.2732625,136.54659522800154L204.3256,136.54659522800154L204.53494999999998,136.54659522800154L204.90131250000002,136.54659522800154L205.477025,136.54659522800154L205.6340375,136.54659522800154L205.686375,136.54659522800154L205.84338749999998,136.54659522800154L206.105075,136.54659522800154L206.4191,136.54659522800154L206.4714375,136.54659522800154L206.68078749999998,136.54659522800154L206.7854625,136.54659522800154L207.0994875,136.54659522800154L207.151825,136.54659522800154L207.25650000000002,136.54659522800154L207.46585,136.54659522800154L207.8322125,136.54659522800154L208.1462375,136.54659522800154L208.30325000000002,136.54659522800154L208.617275,136.54659522800154L209.03597499999998,136.54659522800154L209.1929875,136.54659522800154L209.2976625,136.54659522800154L209.35000000000002,136.54659522800154L209.61168750000002,136.54659522800154L209.664025,136.54659522800154L209.8210375,136.54659522800154L209.9257125,136.54659522800154L209.97805,136.54659522800154L210.08272499999998,136.54659522800154L210.34441249999998,136.54659522800154L210.8677875,136.54659522800154L211.1818125,136.54659522800154L211.2864875,136.54659522800154L211.33882499999999,136.54659522800154L211.54817500000001,136.54659522800154L211.6005125,136.54659522800154L211.8098625,136.54659522800154L211.9145375,136.54659522800154L212.2285625,136.54659522800154L212.2809,136.54659522800154L212.43791249999998,136.54659522800154L212.6472625,136.54659522800154L213.27531249999998,136.54659522800154L213.53699999999998,136.54659522800154L213.5893375,136.54659522800154L213.69401249999999,136.54659522800154L214.16505,136.54659522800154L214.2173875,136.54659522800154L214.5314125,136.54659522800154L214.58374999999998,136.54659522800154L214.688425,136.54659522800154L215.316475,136.54659522800154L215.525825,136.54659522800154L215.63049999999998,136.54659522800154L215.735175,136.54659522800154L215.89218749999998,136.54659522800154L216.0492,136.54659522800154L216.5202375,136.54659522800154L216.8342625,136.54659522800154L216.93893749999998,136.54659522800154L217.51465000000002,136.54659522800154L217.5669875,136.54659522800154L217.8810125,136.54659522800154L218.24737499999998,136.54659522800154L219.503475,136.54659522800154L219.5558125,136.54659522800154L219.66048750000002,136.54659522800154L219.8175,136.54659522800154L219.922175,136.54659522800154L221.0212625,136.54659522800154L221.17827499999999,136.54659522800154L221.38762499999999,136.54659522800154L221.43996249999998,136.54659522800154L221.4923,136.54659522800154L221.596975,136.54659522800154L221.80632500000002,136.54659522800154L221.9633375,136.54659522800154L222.0680125,136.54659522800154L222.1726875,136.54659522800154L222.53905,136.54659522800154L222.69606249999998,136.54659522800154L222.74839999999998,136.54659522800154L222.9054125,136.54659522800154L223.1671,136.54659522800154L223.5858,136.54659522800154L223.79514999999998,136.54659522800154L223.89982500000002,136.54659522800154L224.0045,136.54659522800154L224.0568375,136.54659522800154L224.37086250000002,136.54659522800154L224.5802125,136.54659522800154L224.6848875,136.54659522800154L224.7895625,136.54659522800154L224.946575,136.54659522800154L225.41761250000002,136.54659522800154L225.5222875,136.54659522800154L225.574625,136.54659522800154L225.783975,136.54659522800154L226.0456625,136.54659522800154L226.15033749999998,136.54659522800154L226.6737125,136.54659522800154L226.7783875,136.54659522800154L226.8830625,136.54659522800154L227.56345000000002,136.54659522800154L227.7728,136.54659522800154L227.877475,136.54659522800154L228.40085,136.54659522800154L228.6625375,136.54659522800154L229.0289,136.54659522800154L229.1859125,136.54659522800154L229.2905875,136.54659522800154L229.6046125,136.54659522800154L229.970975,136.54659522800154L230.3373375,136.54659522800154L230.38967499999998,136.54659522800154L230.4420125,136.54659522800154L230.5466875,136.54659522800154L230.70370000000003,136.54659522800154L230.808375,136.54659522800154L231.1224,136.54659522800154L231.33175,136.54659522800154L231.3840875,136.54659522800154L231.69811249999998,136.54659522800154L231.75045,136.54659522800154L231.80278750000002,136.54659522800154L232.06447500000002,136.54659522800154L232.1168125,136.54659522800154L232.3261625,136.54659522800154L232.901875,136.54659522800154L233.2159,136.54659522800154L233.42525,136.54659522800154L233.529925,136.54659522800154L233.6869375,136.54659522800154L233.79161249999999,136.54659522800154L234.1056375,136.54659522800154L234.26265,136.54659522800154L234.472,136.54659522800154L234.68135,136.54659522800154L234.786025,136.54659522800154L234.9430375,136.54659522800154L235.0477125,136.54659522800154L235.25706250000002,136.54659522800154L235.3617375,136.54659522800154L235.46641250000002,136.54659522800154" style="fill: none;" fill="none"></path></g></g></g></g></g></g><g transform="translate(68, 177)" clip-path="url(#clip_1)"><clipPath id="clip_1"><rect width="261" height="22"></rect></clipPath><g><g><line x1="0" y1="0" x2="0" y2="5" style="visibility: inherit;" fill="rgb(0, 0, 0)" stroke="rgb(204, 204, 204)" stroke-width="1px"></line><line x1="26.168750000000003" y1="0" x2="26.168750000000003" y2="5" style="visibility: inherit;" fill="rgb(0, 0, 0)" stroke="rgb(204, 204, 204)" stroke-width="1px"></line><line x1="52.337500000000006" y1="0" x2="52.337500000000006" y2="5" style="visibility: inherit;" fill="rgb(0, 0, 0)" stroke="rgb(204, 204, 204)" stroke-width="1px"></line><line x1="78.50625" y1="0" x2="78.50625" y2="5" style="visibility: inherit;" fill="rgb(0, 0, 0)" stroke="rgb(204, 204, 204)" stroke-width="1px"></line><line x1="104.67500000000001" y1="0" x2="104.67500000000001" y2="5" style="visibility: inherit;" fill="rgb(0, 0, 0)" stroke="rgb(204, 204, 204)" stroke-width="1px"></line><line x1="130.84375" y1="0" x2="130.84375" y2="5" style="visibility: inherit;" fill="rgb(0, 0, 0)" stroke="rgb(204, 204, 204)" stroke-width="1px"></line><line x1="157.0125" y1="0" x2="157.0125" y2="5" style="visibility: inherit;" fill="rgb(0, 0, 0)" stroke="rgb(204, 204, 204)" stroke-width="1px"></line><line x1="183.18124999999998" y1="0" x2="183.18124999999998" y2="5" style="visibility: inherit;" fill="rgb(0, 0, 0)" stroke="rgb(204, 204, 204)" stroke-width="1px"></line><line x1="209.35000000000002" y1="0" x2="209.35000000000002" y2="5" style="visibility: inherit;" fill="rgb(0, 0, 0)" stroke="rgb(204, 204, 204)" stroke-width="1px"></line><line x1="235.51875" y1="0" x2="235.51875" y2="5" style="visibility: inherit;" fill="rgb(0, 0, 0)" stroke="rgb(204, 204, 204)" stroke-width="1px"></line><line x1="261.6875" y1="0" x2="261.6875" y2="5" style="visibility: inherit;" fill="rgb(0, 0, 0)" stroke="rgb(204, 204, 204)" stroke-width="1px"></line></g><g transform="translate(0, 8)"><text x="0" y="0" dx="0em" dy="0.95em" style="text-anchor: middle; visibility: hidden; font-family: &quot;Helvetica Neue&quot;, sans-serif; font-size: 12px; font-weight: 200;" fill="rgb(50, 49, 63)" stroke="none" stroke-width="1px">-500</text><text x="26.168750000000003" y="0" dx="0em" dy="0.95em" style="text-anchor: middle; visibility: inherit; font-family: &quot;Helvetica Neue&quot;, sans-serif; font-size: 12px; font-weight: 200;" fill="rgb(50, 49, 63)" stroke="none" stroke-width="1px">0</text><text x="52.337500000000006" y="0" dx="0em" dy="0.95em" style="text-anchor: middle; visibility: inherit; font-family: &quot;Helvetica Neue&quot;, sans-serif; font-size: 12px; font-weight: 200;" fill="rgb(50, 49, 63)" stroke="none" stroke-width="1px">500</text><text x="78.50625" y="0" dx="0em" dy="0.95em" style="text-anchor: middle; visibility: inherit; font-family: &quot;Helvetica Neue&quot;, sans-serif; font-size: 12px; font-weight: 200;" fill="rgb(50, 49, 63)" stroke="none" stroke-width="1px">1k</text><text x="104.67500000000001" y="0" dx="0em" dy="0.95em" style="text-anchor: middle; visibility: inherit; font-family: &quot;Helvetica Neue&quot;, sans-serif; font-size: 12px; font-weight: 200;" fill="rgb(50, 49, 63)" stroke="none" stroke-width="1px">1.5k</text><text x="130.84375" y="0" dx="0em" dy="0.95em" style="text-anchor: middle; visibility: inherit; font-family: &quot;Helvetica Neue&quot;, sans-serif; font-size: 12px; font-weight: 200;" fill="rgb(50, 49, 63)" stroke="none" stroke-width="1px">2k</text><text x="157.0125" y="0" dx="0em" dy="0.95em" style="text-anchor: middle; visibility: inherit; font-family: &quot;Helvetica Neue&quot;, sans-serif; font-size: 12px; font-weight: 200;" fill="rgb(50, 49, 63)" stroke="none" stroke-width="1px">2.5k</text><text x="183.18124999999998" y="0" dx="0em" dy="0.95em" style="text-anchor: middle; visibility: inherit; font-family: &quot;Helvetica Neue&quot;, sans-serif; font-size: 12px; font-weight: 200;" fill="rgb(50, 49, 63)" stroke="none" stroke-width="1px">3k</text><text x="209.35000000000002" y="0" dx="0em" dy="0.95em" style="text-anchor: middle; visibility: inherit; font-family: &quot;Helvetica Neue&quot;, sans-serif; font-size: 12px; font-weight: 200;" fill="rgb(50, 49, 63)" stroke="none" stroke-width="1px">3.5k</text><text x="235.51875" y="0" dx="0em" dy="0.95em" style="text-anchor: middle; visibility: inherit; font-family: &quot;Helvetica Neue&quot;, sans-serif; font-size: 12px; font-weight: 200;" fill="rgb(50, 49, 63)" stroke="none" stroke-width="1px">4k</text><text x="261.6875" y="0" dx="0em" dy="0.95em" style="text-anchor: middle; visibility: hidden; font-family: &quot;Helvetica Neue&quot;, sans-serif; font-size: 12px; font-weight: 200;" fill="rgb(50, 49, 63)" stroke="none" stroke-width="1px">4.5k</text></g><line x1="0" y1="0" x2="261.6875" y2="0" fill="rgb(0, 0, 0)" stroke="rgb(204, 204, 204)" stroke-width="1px"></line></g></g></g></g></svg>